<?xml version="1.0" encoding="UTF-8"?><svg id="Layer_1" xmlns="http://www.w3.org/2000/svg" viewBox="0 0 338.91 92.17"><defs><style>.cls-1{fill:#003c5f;}.cls-2{fill:#4ac1e0;}</style></defs><g><rect class="cls-2" x="68.94" y="11.42" width="14.06" height="14.06"/><rect class="cls-2" x="87.71" y="11.25" width="9.39" height="8.7"/><rect class="cls-2" x="77.84" width="8.42" height="7.11"/><rect class="cls-2" x="91.55" y="1.43" width="5.36" height="4.78"/></g><path class="cls-1" d="M.79,19c14.7,.75,27.28-4.13,37.63-14.86,9.23,11.28,21.39,15.55,35.68,14.85,.17,2.63,.46,5.16,.47,7.69,.03,5.06,.09,10.12-.19,15.17-.43,8.05-1.58,16-4.83,23.48-2.58,5.95-6.49,10.93-11.34,15.2-6.02,5.29-13.02,8.84-20.51,11.5-.22,.08-.53,.08-.75,0-6.76-2.42-13.08-5.64-18.67-10.21-8.63-7.07-14.08-16.03-16.25-26.99C.87,48.94,.29,42.99,.08,36.99c-.21-5.92,.02-11.81,.59-17.7,0-.05,.04-.1,.12-.29Zm8.28,8.88c0,2.78-.02,5.47,0,8.16,.04,5.45,.56,10.85,1.58,16.21,1.1,5.79,3.13,11.17,6.76,15.88,5.14,6.67,11.85,11.18,19.58,14.31,.3,.12,.75,.05,1.06-.09,2.52-1.22,5.1-2.35,7.52-3.75,8.96-5.19,15.22-12.55,17.78-22.76,1.93-7.68,2.39-15.52,2.37-23.4,0-1.51,0-3.02,0-4.54-10.47-.98-19.62-4.74-27.67-11.26-8.63,6.38-18.2,10.26-28.99,11.25Z"/><path class="cls-2" d="M37.28,29.9c3.23,4.02,6.4,7.96,9.57,11.9,3.06,3.81,6.12,7.62,9.16,11.44,.2,.25,.33,.69,.27,.99-.5,2.4-2.27,6.02-3.92,8.11-5.03-6.26-10.04-12.49-15.11-18.79-5.02,6.26-10,12.46-15.05,18.74-1.58-2.28-2.68-4.68-3.69-7.16-.52-1.29-.05-2.05,.65-2.91,2.2-2.7,4.42-5.38,6.61-8.09,3.74-4.64,7.46-9.29,11.19-13.94,.07-.09,.16-.16,.32-.3Z"/><g><path class="cls-1" d="M129.36,46.77v15.27c0,4.37-1.41,7.61-4.24,9.71-2.83,2.11-7.19,3.16-13.11,3.16s-10.29-1.03-13.11-3.08c-2.83-2.05-4.24-5.24-4.24-9.55,0-8.31,5.41-12.47,16.23-12.47h8.07v-3.04c0-1.81-.64-3.08-1.92-3.8s-3.41-1.08-6.4-1.08c-2.24,0-4.56,.16-6.96,.48-1.76,.27-2.95,.15-3.56-.36-.61-.51-.92-1.64-.92-3.4v-.32c0-1.71,.28-2.88,.84-3.52,.56-.64,1.72-1.09,3.48-1.36,2.5-.27,4.66-.4,6.48-.4,6.56,0,11.42,1.09,14.59,3.28,3.17,2.19,4.76,5.68,4.76,10.47Zm-10.39,14.71v-3.84h-8.23c-3.79,0-5.68,1.47-5.68,4.4,.16,1.71,.75,2.84,1.76,3.4,1.01,.56,2.69,.81,5.04,.76,2.4,.05,4.14-.25,5.24-.92,1.09-.67,1.72-1.93,1.88-3.8Z"/><path class="cls-1" d="M146.87,48.37v21.11c0,1.81-.29,3.01-.88,3.6s-1.79,.88-3.6,.88h-1.52c-1.81,0-3.01-.29-3.6-.88-.59-.59-.88-1.79-.88-3.6v-21.91c0-4.74,1.41-8.35,4.24-10.83,2.82-2.48,6.96-3.72,12.39-3.72h.88c1.55,0,2.61,.37,3.2,1.12,.59,.75,.88,2.08,.88,4v.88c0,1.71-.27,2.8-.8,3.28-.53,.48-1.63,.67-3.28,.56h-.88c-2.35,0-3.96,.4-4.84,1.2s-1.32,2.24-1.32,4.32Z"/><path class="cls-1" d="M174.05,49.17v20.31c0,1.81-.29,3.01-.88,3.6s-1.79,.88-3.6,.88h-1.52c-1.81,0-3.01-.29-3.6-.88-.59-.59-.88-1.79-.88-3.6v-20.31c0-5.22,1.44-9.22,4.32-11.99,2.93-2.77,7.2-4.16,12.79-4.16s9.54,1.71,11.83,5.12c2.45-3.41,6.37-5.12,11.75-5.12,5.76,0,10.02,1.33,12.79,4,2.77,2.67,4.16,6.72,4.16,12.15v20.31c0,1.81-.29,3.01-.88,3.6-.59,.59-1.79,.88-3.6,.88h-1.52c-1.81,0-3.01-.29-3.6-.88-.59-.59-.88-1.79-.88-3.6v-20.31c0-2.4-.45-4.05-1.36-4.96-.91-.91-2.61-1.36-5.12-1.36-2.67,0-4.46,.45-5.4,1.36-.93,.91-1.4,2.56-1.4,4.96v20.31c0,1.81-.29,3.01-.88,3.6-.59,.59-1.79,.88-3.6,.88h-1.2c-1.81,0-3.01-.29-3.6-.88-.59-.59-.88-1.79-.88-3.6v-20.31c0-2.4-.47-4.05-1.4-4.96-.93-.91-2.68-1.36-5.24-1.36s-4.24,.47-5.2,1.4c-.96,.93-1.44,2.57-1.44,4.92Z"/><path class="cls-1" d="M247.44,74.91c-6.5,0-11.33-1.47-14.47-4.4-3.15-2.93-4.72-7.38-4.72-13.35v-6.4c0-5.7,1.64-10.09,4.92-13.15,3.28-3.06,8.03-4.6,14.27-4.6s11.3,1.47,14.39,4.4c3.09,2.93,4.64,7.38,4.64,13.35v6.4c0,5.76-1.61,10.15-4.84,13.19-3.23,3.04-7.95,4.56-14.19,4.56Zm8.55-17.75v-6.4c0-2.93-.61-4.98-1.84-6.16-1.23-1.17-3.47-1.76-6.72-1.76s-5.52,.6-6.8,1.8c-1.28,1.2-1.92,3.24-1.92,6.12v6.4c0,2.88,.64,4.92,1.92,6.12,1.28,1.2,3.54,1.8,6.8,1.8s5.49-.59,6.72-1.76c1.23-1.17,1.84-3.22,1.84-6.16Z"/><path class="cls-1" d="M283.97,48.37v21.11c0,1.81-.29,3.01-.88,3.6s-1.79,.88-3.6,.88h-1.52c-1.81,0-3.01-.29-3.6-.88-.59-.59-.88-1.79-.88-3.6v-21.91c0-4.74,1.41-8.35,4.24-10.83,2.82-2.48,6.96-3.72,12.39-3.72h.88c1.55,0,2.61,.37,3.2,1.12,.59,.75,.88,2.08,.88,4v.88c0,1.71-.27,2.8-.8,3.28-.53,.48-1.63,.67-3.28,.56h-.88c-2.35,0-3.96,.4-4.84,1.2-.88,.8-1.32,2.24-1.32,4.32Z"/><path class="cls-1" d="M310.67,38.37l5.28,24.14c.32,1.39,.73,2.29,1.24,2.72,.51,.43,1.35,.64,2.52,.64,.8,0,1.41-.24,1.84-.72,.43-.48,.8-1.36,1.12-2.64l5.28-24.14c.43-1.76,1-2.93,1.72-3.52,.72-.59,1.96-.88,3.72-.88h1.76c1.81,0,2.94,.29,3.4,.88,.45,.59,.49,1.76,.12,3.52l-8.15,35.58c-1.23,5.6-3.27,9.83-6.12,12.71-2.85,2.88-6.57,4.66-11.15,5.36-1.92,.27-3.2,.19-3.84-.24-.64-.43-1.15-1.57-1.52-3.44l-.08-.4c-.43-1.71-.44-2.88-.04-3.52,.4-.64,1.43-1.15,3.08-1.52,4.74-1.07,7.65-3.84,8.71-8.31-.48,.21-1.57,.32-3.28,.32-3.09,0-5.37-.81-6.84-2.44-1.47-1.63-2.68-4.54-3.64-8.75l-5.84-25.34c-.37-1.76-.33-2.93,.12-3.52,.45-.59,1.59-.88,3.4-.88h1.76c1.76,0,3,.29,3.72,.88,.72,.59,1.29,1.76,1.72,3.52Z"/></g></svg>