<svg id="Layer_1" data-name="Layer 1" xmlns="http://www.w3.org/2000/svg" viewBox="0 0 338.91 92.17"><defs><style>.cls-1{fill:#4ac1e0;}.cls-2{fill:#fff;}</style></defs><rect class="cls-1" x="68.94" y="11.42" width="14.06" height="14.06"/><rect class="cls-1" x="87.71" y="11.25" width="9.39" height="8.7"/><rect class="cls-1" x="77.84" width="8.42" height="7.11"/><rect class="cls-1" x="91.55" y="1.43" width="5.36" height="4.78"/><path class="cls-2" d="M.79,19c14.7.75,27.28-4.13,37.63-14.86C47.64,15.42,59.8,19.69,74.1,19c.17,2.64.46,5.17.47,7.7,0,5,.09,10.12-.18,15.16-.44,8.06-1.58,16-4.83,23.49A43.18,43.18,0,0,1,58.22,80.53c-6,5.3-13,8.84-20.51,11.51A1.28,1.28,0,0,1,37,92,61.88,61.88,0,0,1,18.29,81.83,45.29,45.29,0,0,1,2,54.84,111.55,111.55,0,0,1,.08,37a135.87,135.87,0,0,1,.58-17.7A1.84,1.84,0,0,1,.79,19Zm8.28,8.88c0,2.78,0,5.47,0,8.16a90,90,0,0,0,1.59,16.21,36.71,36.71,0,0,0,6.76,15.88C22.56,74.8,29.28,79.31,37,82.43a1.43,1.43,0,0,0,1-.09c2.52-1.22,5.1-2.35,7.52-3.76,9-5.19,15.22-12.54,17.78-22.75a94.43,94.43,0,0,0,2.37-23.4V27.88A50.35,50.35,0,0,1,38.05,16.62,56.67,56.67,0,0,1,9.07,27.88Z"/><path class="cls-1" d="M37.28,29.9l9.58,11.91C49.92,45.62,53,49.42,56,53.25a1.38,1.38,0,0,1,.27,1,23.3,23.3,0,0,1-3.93,8.12L37.25,43.56l-15,18.75a36.26,36.26,0,0,1-3.69-7.16,2.54,2.54,0,0,1,.65-2.91c2.2-2.7,4.42-5.38,6.61-8.09q5.61-7,11.19-13.94C37,30.12,37.13,30.05,37.28,29.9Z"/><path class="cls-2" d="M129.36,46.77V62q0,6.56-4.23,9.71T112,74.91q-8.87,0-13.11-3.08t-4.23-9.55q0-12.48,16.23-12.48H119v-3a4,4,0,0,0-1.92-3.8q-1.92-1.08-6.39-1.08a52.67,52.67,0,0,0-7,.48c-1.76.27-3,.15-3.56-.36s-.92-1.64-.92-3.4v-.32a5.43,5.43,0,0,1,.84-3.51,5.82,5.82,0,0,1,3.48-1.36A61.53,61.53,0,0,1,110,33q9.83,0,14.59,3.27T129.36,46.77ZM119,61.48V57.64h-8.23q-5.68,0-5.68,4.4c.16,1.7.75,2.83,1.76,3.39a10.44,10.44,0,0,0,5,.76,9.9,9.9,0,0,0,5.24-.92C118.18,64.61,118.81,63.34,119,61.48Z"/><path class="cls-2" d="M146.87,48.37v21.1c0,1.81-.29,3-.88,3.6s-1.79.88-3.6.88h-1.52c-1.81,0-3-.29-3.59-.88s-.88-1.79-.88-3.6V47.57q0-7.12,4.23-10.84T153,33h.88a3.84,3.84,0,0,1,3.19,1.12c.59.74.88,2.07.88,4V39c0,1.71-.27,2.8-.8,3.28s-1.62.67-3.27.56H153q-3.53,0-4.84,1.2T146.87,48.37Z"/><path class="cls-2" d="M174.05,49.17v20.3c0,1.81-.29,3-.88,3.6s-1.78.88-3.6.88h-1.51c-1.82,0-3-.29-3.6-.88s-.88-1.79-.88-3.6V49.17c0-5.23,1.44-9.22,4.32-12S175.09,33,180.69,33s9.54,1.7,11.83,5.11Q196.2,33,204.27,33q8.64,0,12.79,4t4.16,12.16v20.3c0,1.81-.29,3-.88,3.6s-1.79.88-3.6.88h-1.52c-1.81,0-3-.29-3.6-.88s-.87-1.79-.87-3.6V49.17c0-2.4-.46-4.05-1.36-5s-2.62-1.36-5.12-1.36c-2.67,0-4.46.45-5.4,1.36s-1.4,2.56-1.4,5v20.3q0,2.72-.87,3.6c-.59.59-1.79.88-3.6.88h-1.2c-1.81,0-3-.29-3.6-.88s-.88-1.79-.88-3.6V49.17q0-3.6-1.4-5c-.93-.91-2.68-1.36-5.23-1.36s-4.24.47-5.2,1.4S174.05,46.82,174.05,49.17Z"/><path class="cls-2" d="M247.44,74.91q-9.75,0-14.47-4.4t-4.72-13.35v-6.4q0-8.55,4.92-13.15T247.44,33q9.75,0,14.39,4.39t4.64,13.35v6.4q0,8.64-4.84,13.19T247.44,74.91ZM256,57.16v-6.4q0-4.4-1.84-6.15t-6.71-1.76q-4.87,0-6.8,1.8c-1.28,1.2-1.91,3.24-1.91,6.11v6.4c0,2.88.63,4.92,1.91,6.12s3.55,1.79,6.8,1.79,5.49-.58,6.71-1.75S256,60.09,256,57.16Z"/><path class="cls-2" d="M284,48.37v21.1c0,1.81-.29,3-.88,3.6s-1.78.88-3.59.88H278c-1.81,0-3-.29-3.6-.88s-.88-1.79-.88-3.6V47.57q0-7.12,4.24-10.84T290.13,33H291a3.87,3.87,0,0,1,3.2,1.12,6.71,6.71,0,0,1,.88,4V39c0,1.71-.27,2.8-.8,3.28s-1.63.67-3.28.56h-.88q-3.53,0-4.84,1.2T284,48.37Z"/><path class="cls-2" d="M310.67,38.37,316,62.52a5.08,5.08,0,0,0,1.24,2.71,3.91,3.91,0,0,0,2.52.64,2.34,2.34,0,0,0,1.84-.72,6.57,6.57,0,0,0,1.12-2.63l5.27-24.15a6.48,6.48,0,0,1,1.72-3.51,6,6,0,0,1,3.72-.88h1.76c1.81,0,2.94.29,3.4.88s.49,1.75.12,3.51L330.5,74q-1.85,8.39-6.11,12.71A19.31,19.31,0,0,1,313.23,92c-1.92.26-3.19.18-3.83-.24s-1.15-1.58-1.52-3.44l-.08-.4c-.43-1.71-.44-2.88,0-3.52s1.42-1.15,3.07-1.52c4.75-1.06,7.65-3.84,8.72-8.31a10.27,10.27,0,0,1-3.28.32c-3.09,0-5.37-.82-6.83-2.44s-2.68-4.54-3.64-8.75L300,38.37q-.56-2.64.12-3.51c.45-.59,1.59-.88,3.4-.88h1.76a6,6,0,0,1,3.72.88A6.41,6.41,0,0,1,310.67,38.37Z"/></svg>